<svg viewBox="0 0 1854.63 249.3" xmlns="http://www.w3.org/2000/svg"><defs><style>.cls-1{fill:#47060c;}.cls-2{fill:#49090f;}.cls-3{fill:#48070d;}</style></defs><g id="Layer_1"><path d="M843,6.71l1.78,2.06,57.25,157.16L960.8,6.71h42.71l-.03,1.89c-2.55.17-6,1.65-7.84,3.44-6.71,6.52-5.33,30.29-5.55,39.53-.87,35.82-.88,72.05,0,107.86.24,9.58-.94,28.88,3.81,36.96,2.67,4.53,9.24,5.56,9.54,6.05.26.43,0,1.29.07,1.85h-54.95c-.51,0-.92-1.38-.72-1.91,17.39-3.21,11.75-26.39,13.94-39.07l-.03-149.41-70,190.58-2.71.32L817.08,13.42l-.26,156.13c1.6,11.71-.91,24.54,11.04,31.17,1.81,1.01,4.38.72,3.86,3.58h-31.19c-.37-2.93,3.77-3.49,5.99-5.29,6.8-5.51,7.16-20.18,7.47-28.5,1.77-46.35-.99-94.09-.51-140.53-1.08-9.12-1.66-19.81-12.9-21.4l-.06-1.86h42.47Z" class="cls-1"></path><path d="M1298.16,78.65v24.94c8.73-8.1,18.62-17.9,30.11-21.94,18.96-6.66,40.58.16,42.35,22.42,15.28-14.65,31.41-29.36,54.43-23.46,14.76,3.78,18.76,16.65,19.49,30.4,1.31,24.75-1.7,51.2-.01,75.79.51,7.44,2.07,14.32,10.55,15.6.2.53-.21,1.91-.72,1.91h-46.31c-.71-2.84,3.23-2.51,5.44-3.91,4.01-2.53,4.98-7.31,5.59-11.68-.8-28.31,2.7-59.73.5-87.77-.42-5.31-2.57-12.36-7.85-14.7-10.86-4.82-23.66,5.14-31.53,11.83-1.58,1.34-8.84,7.77-9.1,9.13.55,25.2-1,50.62.49,75.74.34,5.73-.48,13.77,5.1,17.44,2.14,1.41,5.56,1.05,4.96,3.92h-47.03c.08-.56-.19-1.42.07-1.85.17-.28,4.8-1.6,6.02-2.38,4.26-2.7,4.7-8.27,5.42-12.81-.48-27.51,2.25-57.08.51-84.42-2.24-35.09-37.33-10.22-48.48,4.35.73,23.97-1,48.53-.03,72.43.19,4.64.57,13.83,2.98,17.64.58.91,2.21,2.54,3.12,3.12,2.22,1.4,6.16,1.07,5.44,3.91h-46.31c-.51,0-.92-1.38-.72-1.91,9.39-1.65,10.14-9.97,10.58-17.97,1.4-25.49-.61-51.64-.62-77.11-1.15-5.94-4.35-7-9.94-7.58l.07-1.57,35.42-19.51Z" class="cls-1"></path><path d="M650.33,78.65v28.77c11.19-10,23.65-23.61,38.87-27.1,20.31-4.65,37.68,4.69,39.34,26.38,2.04,26.66-2,55.64.55,82.42.39,4.05,1.5,8.87,5.06,11.25,2.07,1.38,5.68,1.25,4.96,3.92h-46.55l.07-1.85c8.48-1.9,10.12-7.37,10.96-15.18-.57-27.43,2.37-57.18.51-84.42-1.4-20.44-15.83-21.64-30.79-12.03-8.27,5.31-15.82,13-22.87,19.82l-.12,72.82c.98,6.7,0,13.94,7.04,17.42,2.04,1.01,5.23.72,4.5,3.42h-46.31c-.51,0-.92-1.38-.72-1.91,8.85-1.28,10.06-8.98,10.55-16.56,1.64-25.46-.65-53.35-.69-78.91-.79-3.53-1.51-5.25-5.15-6.36-1.85-.56-5.61.02-4.64-2.41l35.44-19.5Z" class="cls-1"></path><path d="M1106.21,78.65v28.77c11.19-10,23.65-23.61,38.87-27.1,20.31-4.65,37.68,4.69,39.34,26.38,2.04,26.66-2,55.64.55,82.42.39,4.05,1.5,8.87,5.06,11.25,2.07,1.38,5.68,1.25,4.96,3.92h-46.55l.07-1.85c8.48-1.9,10.12-7.37,10.96-15.18-.57-27.43,2.37-57.18.51-84.42-1.4-20.44-15.83-21.64-30.79-12.03-8.27,5.31-15.82,13-22.87,19.82l-.12,72.82c.98,6.7,0,13.94,7.04,17.42,2.04,1.01,5.23.72,4.5,3.42h-46.31c-.51,0-.92-1.38-.72-1.91,8.85-1.28,10.06-8.98,10.55-16.56,1.64-25.46-.65-53.35-.69-78.91-.79-3.53-1.51-5.25-5.15-6.36-1.85-.56-5.61.02-4.64-2.41l35.44-19.5Z" class="cls-1"></path><path d="M182.93,50.35l-2.35-.05c-5.47-24.17-24.65-41.86-49.72-43.59-37.64-2.6-56.26,22.2-63.34,56.1-7.21,34.47-5.53,94.05,19.67,121.34,26,28.15,74.75,21.05,97.42-7.67l1.12,1.26c.38,1.84-9.58,10.84-11.48,12.35-28.47,22.6-72.9,21.27-101.84.2-46.44-33.82-50.99-115.76-13.3-157.46C81.53,8.03,118.51-2.08,150.55,8.13c8.96,2.86,26.07,14.11,30.03-.41l2.35-.06v42.68Z" class="cls-1"></path><path d="M443.5,204.29l.07-1.85c8.26-2.02,9.69-7.58,10.48-15.18-.77-49.34,2.68-100.44.51-149.64-.14-3.07-.41-8-1.11-10.88-1.5-6.09-4.97-5.78-10.37-6.65l-.07-1.57L479.01,0l-.02,177.7c1.05,10.1-.97,23.09,12.5,24.68.2.53-.21,1.91-.72,1.91h-47.27Z" class="cls-1"></path><path d="M1579.36,204.29l.07-1.85c8.26-2.02,9.69-7.58,10.48-15.18-.77-49.34,2.68-100.44.51-149.64-.14-3.07-.41-8-1.11-10.88-1.5-6.09-4.97-5.78-10.37-6.65l-.07-1.57,36.01-18.53-.02,177.7c1.05,10.1-.97,23.09,12.5,24.68.2.53-.21,1.91-.72,1.91h-47.27Z" class="cls-1"></path><path d="M1576,199.02l.28,1.44c-13.5,9.31-40.47,7.86-42.27-12.48-5.49,4.47-10.4,9.63-16.71,13.04-19.32,10.42-51.54,5.43-51.71-21.42-.15-23.61,26.96-27.47,44.03-34.68,10.01-4.22,23.18-8.86,24.17-21.41.51-6.46.72-24.88-1.23-30.46-3.83-10.98-18.95-13.84-28.87-10.17-11.1,4.11-9.73,22.69-24.34,20.67-7.56-1.05-9.32-10.05-4.14-15.08,11.13-10.81,45.76-10.51,59.89-6.58,14.49,4.03,22.61,12.34,23.62,27.71,1.61,24.33-1.36,50.39-.02,74.83.2,3.6,1.05,11.77,3.17,14.58,3.18,4.22,10.22,2.31,14.12.03ZM1533.78,185.35v-53.95l-4.79,5.52c-12.01,9.67-31.3,10.04-36.45,26.88-3.18,10.39-2.64,31.99,10.14,35.84s22.93-6.59,31.1-14.29Z" class="cls-1"></path><path d="M245.21,79.27l6.12-.16c19.12.77,41.73,5.55,43.43,28.54,1.96,26.57-3.25,58.44,1.08,84.28,1.36,8.08,4.6,11.46,13.15,8.62.53-.18,4.71-2.7,3.29-.08-.83,1.52-6.51,3.69-8.31,4.16-10.91,2.84-27.25,1.6-32-10.42-.84-2.13-.94-4.27-1.93-6.22-6.53,5.83-12.54,11.78-20.88,15.09-17.68,7.01-44.81,2.32-46.96-20.2-2.53-26.45,23.34-29.53,42.15-37.36,7.79-3.25,21.05-8.17,24.37-16.41,2.52-6.26,2.32-30.17-.13-36.56-3.58-9.33-13.82-11.84-22.97-10.97-15.89,1.51-12.84,14.84-21.83,20.39-10.44,6.45-21.66-5.43-11.34-14.21,7.31-6.22,23.37-8.15,32.76-8.5ZM270.26,131.4c-10.45,15.38-35.26,12.96-41.41,32.23-3.06,9.59-2.73,30.07,7.8,35.16,12.41,6,25.62-5.48,33.61-13.92v-53.47Z" class="cls-1"></path><path d="M538.03,81.53l-.28,1.48c-10.88,1.43-5.31,14.5-2.96,21.18,7.86,22.34,18.3,47.79,27.84,69.53.27.61.66,2.58,1.55,2.29,7.77-21.37,17.93-42.29,25.56-63.67,3.65-10.24,11.26-28.53-6.12-29.38v-1.43s28.31,0,28.31,0l-.29,1.48c-7.78,1.66-11.15,10.36-14.2,16.9-17.7,38.03-30.81,79.69-47.68,118.28-5.83,13.35-14.85,34.72-32.97,30.59-11.48-2.62-10.71-18,1.81-17.65,9.55.27,13.77,11.45,22.41-1.06,4.8-6.96,7.99-16.54,10.84-24.45l-44.12-105.55c-2.7-4.53-4.94-12.01-9.37-15.09-1.54-1.08-4.91-1.38-4.48-3.44h44.15Z" class="cls-1"></path><path d="M408.47,40.76v40.76h25.91v2.4h-25.91l-.02,97.13c.79,6.85.62,18.2,9.02,20.24,6.61,1.6,13.47-1.51,18.11-6.1,2.18,1.78-2.9,5.15-4.41,6.13-10.7,6.98-31.3,6.55-40.45-3.03-2.83-2.96-6.72-10.82-6.72-14.86v-99.51h-10.32l-.68-2.36c19.85-3,30.59-21.96,33.29-40.34l2.18-.46Z" class="cls-1"></path><path d="M1826.98,40.76v40.76h25.91v2.4h-25.91l-.02,97.13c.79,6.85.62,18.2,9.02,20.24,6.61,1.6,13.47-1.51,18.11-6.1,2.18,1.78-2.9,5.15-4.41,6.13-10.7,6.98-31.3,6.55-40.45-3.03-2.83-2.96-6.72-10.82-6.72-14.86v-99.51h-10.32l-.68-2.36c19.85-3,30.59-21.96,33.29-40.34l2.18-.46Z" class="cls-1"></path><path d="M1695.97,166.17l2.4-.72c3.27,17.63,12.78,34.72,31.97,37.83,20.09,3.25,38.29-5.78,33.07-28.73-6.02-26.47-59.32-21.19-64.91-56.46-4.93-31.13,25.94-44.8,52.28-37.38,5.72,1.61,17.34,9.35,19.64.42l2.33-.07v28.29l-2.33-.07c-4.75-15.67-14.22-27.11-31.5-28.22-15.79-1.01-28.93,5.24-26.5,23.13,1.85,13.69,21.68,18.93,32.35,23.78,16.09,7.3,31.82,15.01,34.65,34.43,5.02,34.48-30.57,50.82-59.71,40.96-4.39-1.49-14.85-8.48-18.72-6.28-2.22,1.26-1.73,4.73-5.01,3.86v-34.77Z" class="cls-1"></path><path d="M1013.11,204.29l.07-1.85c3.41-1.21,6.78-2.2,8.44-5.71,2.03-4.3,2.36-12.27,2.55-17.11.78-19.85.96-44.04,0-63.82-.15-3.03-.48-8.75-1.56-11.39-1.7-4.15-5.61-4.27-9.5-4.66l.07-1.6,35.68-19.5.25,105.74c1,5.86.24,12.61,6.09,15.98,2.26,1.3,6.13,1.22,5.42,3.93h-47.51Z" class="cls-1"></path><path d="M1205.06,204.29l.07-1.85c3.41-1.21,6.78-2.2,8.44-5.71,2.03-4.3,2.36-12.27,2.55-17.11.78-19.85.96-44.04,0-63.82-.15-3.03-.48-8.75-1.56-11.39-1.7-4.15-5.61-4.27-9.5-4.66l.07-1.6,35.68-19.5.25,105.74c1,5.86.24,12.61,6.09,15.98,2.26,1.3,6.13,1.22,5.42,3.93h-47.51Z" class="cls-1"></path><path d="M316.09,204.29c-.66-.19-.85-1.28-.72-1.91,9.42-1.45,10.6-9.41,11.06-17.49,1.43-25.47-.55-52.92-.71-78.46-1.31-5.89-4.45-6.14-9.87-6.69.02-.52-.11-1.13.08-1.6.73-1.87,31.28-16.81,35.19-19.5l.22,99.53c1.33,7.16-1.05,18,6.49,22.29,2.14,1.22,5.66.96,5.05,3.82h-46.79Z" class="cls-1"></path><path d="M1637.67,204.29c-.66-.19-.85-1.28-.72-1.91,9.42-1.45,10.6-9.41,11.06-17.49,1.43-25.47-.55-52.92-.71-78.46-1.31-5.89-4.45-6.14-9.87-6.69.02-.52-.11-1.13.08-1.6.73-1.87,31.28-16.81,35.19-19.5l.22,99.53c1.33,7.16-1.05,18,6.49,22.29,2.14,1.22,5.66.96,5.05,3.82h-46.79Z" class="cls-1"></path><path d="M1033.14,32.25c22.41-3.49,22.65,28.63,2.84,28.14-17.13-.42-18.08-25.77-2.84-28.14Z" class="cls-1"></path><path d="M1225.09,32.25c22.41-3.49,22.65,28.63,2.84,28.14-17.13-.42-18.08-25.77-2.84-28.14Z" class="cls-1"></path><path d="M335.4,32.24c11.26-1.9,20.61,7.28,16.95,18.37-5.21,15.8-30.54,11.32-27.26-8.06.73-4.35,5.97-9.58,10.32-10.31Z" class="cls-1"></path><path d="M1656.98,32.24c11.26-1.9,20.61,7.28,16.95,18.37-5.21,15.8-30.54,11.32-27.26-8.06.73-4.35,5.97-9.58,10.32-10.31Z" class="cls-1"></path></g><g id="Layer_2"><path d="M851.33,103.5c-.9.28-1.44.3-2.33.52-.16.04-.13.36-.27.39-.92.22-4.94-.22-6.08-.45-6.42-1.32-10.97-5.31-15.75-9.33-1.06-.89-1.93-2.26-3.51-2.36-.03.59-.03,1.14.18,1.71.83,2.19,1.81,3.09,2.42,5.74.57,2.46,1.24,5.12,1.72,7.63,2.43,12.63-4.44,26.23,4.83,37.19,8.89,10.51,22.4,12.57,30.81,25.53.47.73.81,1.95,1.43,2.7.51.61,2.11,1.4,1.96,2.4-.25,1.66-3.75.6-4.36,1.63-.57.96.23,3.8-.69,4.89-1.77,2.1-4.64-2.96-5.48-4.03-1.08-1.39-2.14-2.83-3.21-4.19-7.56-9.61-20.21-10.4-27.2-19.78-6.18-8.3-9.26-17.76-8.54-28.19.77-11,6.45-21.66-3.54-30.62-.48-.43-1.82-1.57-2.46-1.16-.59,1.51-1.4,2.94-2.06,4.41-1.29,2.88-2.02,5.37-3.95,8-5.21,7.09-13.64,15.84-23.29,13.35l-15.47-2.64c-5.34-.34-10.72.12-15.23,2.94-3.93,2.45-7.64,8.55-9.86,12.68-.89,1.66-2.4,6.44-3.74,7.21s-2.33-.07-2.95-1.19c-.33-.59-.46-2.07-1.21-2.19-.84-.13-1.08.51-1.63.76-1.46.66-4.36,2.43-5.73,2.41-.42,0-1.51-.39-1.89-.67-.14-.49,1.82-2.82,2.19-3.38,3.07-4.64,6.24-10.17,9.56-14.53,2.1-2.76,9.25-8.43,12.36-9.93,9.56-4.63,22.43.35,32.52,1.27,1.63.15,2.86.15,4.46-.32,6.95-2.04,15.29-12.67,17.77-19.45.78-2.14,1.02-2.88-1.56-3.25-2.08-.3-3.38.65-5.2,1.26-1.3.44-3.53.92-4.67,1.5-.9.45-2.76,2.04-3.99,2.78-2.02,1.2-4.99,3.19-7.12,4.03-9.11,3.6-18.23-.61-23.31-8.7-8.48-13.5-.43-27.89,15.48-27.43,12.89.37,22.26,12.11,33.22,17.34,2.27,0,4.67-1.03,6.98-1,2.07.03,2.38,1.2,4.88.3,6.83-2.46,13.19-6.55,20.49-8.18,8.93-2,19.46-.86,23.94,8.33,5.84,11.99,1.4,20.35-10.91,24.12ZM797.28,83.53c-.23-.38-7.2-2.92-8.27-3.37-3.23-1.38-6.4-2.98-9.67-4.26-4.67-1.82-9.07-4.36-13.37-.36-4.08,3.79-2.37,11.65,1.99,14.54,6.37,4.21,13.36-1.26,19.36-3.14,2.89-.9,6.15-1.39,9.04-2.31.31-.1.58-.33.93-.36.09-.1.08-.61,0-.74ZM854.77,81.38c-.98-1.03-2.38-2.02-3.71-2.56-5.7-2.32-18.38.99-24.45,2.43-1.05.25-2.68-.04-2.14,1.46.33.9,4.75,3.59,5.85,4.3,4.66,2.99,10.72,7.14,15.57,9.51.76.37,2.29,1.07,3.08,1.1,6.93.32,10.06-7.51,7.86-13.04-.45-1.12-1.26-2.35-2.07-3.21Z" class="cls-3"></path><path d="M1408.7,10.95c1.1.59,3.1,3.23,3.34,4.59.44,2.55-1.13,4.21-1.11,6.67.11.13,2.96.47,3.41.49,6.96.31,14.9-6.44,22.07-1.26,2.1,1.52,3.41,4.52,1.8,6.88-.36.53-3.74,3.48-4.4,3.9-4.99,3.23-11.97,4.11-17.7,5.39.14,1.79.68,3.5,1.38,5.13.78,1.8,3.43,5.42,3.36,7.05-.01.29-.1.81-.31,1.01-1.43.57-2.29,1.98-3.73,2.54-2.05.8-4.77,1.38-6.95,1.26-4.28-.23-8.73-1.64-12.9.31l1.29,7.32c-.87,1.39-2.53,4.13-4.27,4.26-.98.07-3.92-.14-4.98-.25-1.79-.19-5.57-4.12-7.17-5.44-1.78-1.48-3.9-3.46-5.8-4.81-1.12-.79-7.86-4.2-8.92-4.32-1.44-.16-2.72.84-4.4.62-.43-.06-1.39-1.5-1.48-1.85-.42-1.69,1.6-2.82,2.2-4.31,2.23-5.53,2.72-12.41,5.49-17.57,1.05-1.95,2.65-4.52,4.02-6.51.83-1.19,2.24-3.29,3.5-3.85,1.66-.73,4.85-1.51,6.56-.92.13.05,2.14,1.35,2.25,1.47,1.59,1.62,1.72,3.66,2.55,5.61l10.72-11.11c3.19-1.75,6.45-4.27,10.15-2.29ZM1406.5,24.74c-2.5-3.41.05-5.73-.09-9.38-1.27.4-2.93.76-4.08,1.43-.23.13-1.24,1.37-1.61,1.75-3.49,3.49-6.49,7.72-10.81,10.26-1,.59-2.87,1.79-3.95,1.69-3.76-.35-3.37-6.64-5.23-8.06-.7-.54-3.12,1.5-3.68,2.1-4.26,4.59-5.39,12.34-7.57,18.03,1.64-.39,3.31-.85,4.92-1.35,6.41-1.97,12.81-5.09,19.58-5.04,1.44.01,3.96,1.62,4.72,2.85.35.57.46,1.24.6,1.88l-9.72.82-17.5,5.93c.11.12.18.27.25.41.15.32,4.35,3.18,4.97,3.59,2.37,1.57,5.56,2.99,7.71,4.96,1.09,1,2.12,2.65,3.23,3.63.15.13,1.78,1.26,1.89,1.3,1,.34,1.63.28,2.48-.33.47-1.79-.72-3.35-.89-5.04-.63-6.11,2.32-7.11,7.68-7.93,5.7-.17,11.24,2.13,16.93.95-.29-.47-.44-1.05-.75-1.51-2.14-3.26-3.94-3.89-4.23-8.54-.15-2.39.1-3.31,2.07-4.58,4.4-2.82,8.47-3.24,13.5-4.26l7.03-3.82c.89-.66-1.93-2.07-2.54-1.9-4.18.62-8.6,2.8-12.69,3.43-1.41.22-6.61-.32-8.06-.72-1.13-.32-3.48-1.62-4.17-2.56Z" class="cls-2"></path><path d="M1301.22,19.24c2.35,1.34,4.52,2.68,6.11,5.13,1.7,2.63,1.89,5.6,3.38,8.27.28.04.53-.05.79-.13,2.83-.84,5.09-5.34,6.79-7.64.49-.66,2.23-3.18,2.69-3.46,1.14-.69,3.07-.81,4.3-.32,2.13.85,4.21,4.41,5.19,6.4,2.09,4.23,2.8,8.55,2.56,13.29-.17,3.36-1.56,8.31-.59,11.48.28.92,1.19,2.11,1.28,3.16-.12.41-6.41,3.48-7.37,4.19-3.24,2.36-7.18,9.22-11.06,10.06-2.17.47-6.34-1.06-7.75-2.81-.21-.26-1.37-2.5-1.51-2.87-.74-2.04-.05-4.79-3.3-3.79-7.68,2.36-15.92,8.14-23.49,2.23-1.84-1.44-3.06-4.89-2.79-7.21.09-.77,1.46-3.48,1.85-4.3.78-1.61,1.78-3.16,2.6-4.75,0-2.85-2.59-2.97-4.5-3.86-2.4-1.13-7.14-3.47-8.58-5.67-1.43-2.2-1.67-4.25-.21-6.55,2-3.14,9.32-4.12,12.74-3.84,2.28.19,5.46,1.77,7.45.34,2.45-1.77,1.04-5.58,1.48-8.22,3.31-4.48,8.22-1.25,11.93.87ZM1297.19,22.81c-.41-.22-.57-.57-1.21-.61-2.35-.13-2.15,4.93-2.77,6.48l-2.61,2.83c-.88.14-1.79.31-2.67.41-1.13.12-3.43.31-4.5.25-2.33-.14-3.89-1.26-6.6-.94-1.18.14-5.49,1.37-4.72,3,.24.5,8.68,4.25,9.73,5.19,1.53,1.55,4.93,2.97,5.01,5.42.07,2.28-2.73,5.75-3.81,7.74-.97,1.78-2,3.25-.95,5.3,1.85,3.59,6.71,1.87,9.75.89,5.21-1.68,9.99-5.29,15.44-2.7.25.12,2.47,1.62,2.56,1.75l3.46,7.44c.52.15,2.64-1.28,3.09-1.71,2.2-2.06,3.23-5.93,6.37-7.46l4.35-2.52-2.79-1.94c-3.98-3.31-9.85-4.66-14.68-7.11l-19.46-4.21c-.65-.83-.8-1.93-.7-2.94,1.39-.51,2.61-.03,3.88,0,3.7.07,6.44,0,10.13.76,6.59,1.38,11.55,4.51,17.7,6.68.75.27,1.65.18,2.53.55,1.44.59,1.58,2.11,3,2.63,1.15-.74,1.45-1.88,1.57-3.18.25-2.78.07-7.07.02-9.93-.03-1.83-2.43-5.13-3.31-6.89-.2-.4-.82-2.91-1.56-2.7-.11.38-.64.61-.76.77-.03.03.01.14-.29.59-2.26,3.31-5.31,9.66-9.37,10.93-1.07.34-2.36.29-3.49.48-3.81-3.22-5.27-7.61-7.33-12.01-1.74-.87-3.58-2.48-5.01-3.26Z" class="cls-2"></path><path d="M1354.73,34.85l2.43,2c.7,3.68,2.1,7.29,1.61,11.11-.56.09-.46.68-.71.93-.5.5-3.89,3.73-4.14,3.84-.83.38-4.95,1.43-5.85,1.45-5.06.1-9.15-5.73-8.86-10.51.43-7.08,9.27-11.47,15.52-8.82ZM1353.08,46.75c.34-.25.7-.94,1.39-1.1l-1.78-6.05c-2.36-.17-4.34-.6-6.46.66-1.41.84-1.04,3.05-1.36,4.53l1.94,4.12c2.26-.12,4.46-.84,6.27-2.17Z" class="cls-2"></path><path d="M1367.51,56.62l2.55,1.82c2.22,2.2,2.74,8.44,1.38,11.05-.14.28-3.98,4.16-4.41,4.46-1.12.8-3.17,1.3-4.55,1.49-.65.09-3.68.29-4.11.13-.54-.19-2.89-2.48-3.46-3.05-.39-.39-2.63-2.73-2.69-2.92-.31-.85-.33-3.24-.24-4.19.66-6.9,9.31-11.19,15.53-8.78ZM1367.21,61.65c-.49-.6-.31-1.27-1.39-1.36-1.54.43-4.7.08-5.93.96-.17.12-2.71,2.95-2.78,3.14-.3.75-.67,3.58-.29,4.2l3.34,2.54c1.22-.5,2.65-.58,3.88-1,2.46-.84,5.19-4.28,4.32-6.92-.24-.72-.75-1.07-1.15-1.57Z" class="cls-2"></path><path d="M1346.39,61.16c1.59,1.37,1.73,2.05,1.55,4.23-.13,1.53-1.22,2.29-1.29,3.08-.23,2.45,1.01,3.7-1.26,5.78-3.69,3.39-10.23,4.1-13.53-.16-7.53-9.75,5.98-20.31,14.53-12.93ZM1344.11,64.61c-1.25.03-3.45-1.04-4.54-.92-.12.01-1.96.72-2.21.83s-1.85.96-1.91,1.05c-.13.18-.57,2.55-.54,2.9s.76,2.29.96,2.61c.62,1.02,2.99,1.2,4.09,1,.21-.04,1.94-.63,2.02-.71.27-.26,1.11-1.83,1.4-2.26.26-.38.9-1.05,1.26-1.4l-.52-3.11Z" class="cls-2"></path><path d="M46.97,142.83c2.02,3.7,3.99,8.25,6.73,11.76.42.54,2.16,2.8,2.82,1.8.62-3.38-.31-6.89-.28-10.21.05-4.32,3.25-14.49,4.74-18.94,1.3-3.86,4.49-10.95,7.27-13.85.28-.29,2.73-2.3,2.97-2.34,2.38-.42,3.31,1.1,4.03,3.03,1.98,5.3,1.16,11.58.58,17.09l-10.85,35.66c.09.95,1.88,3.54,2.59,4.34s2.02,1.71,2.73,2.44c.49.5,6.49,7,6.75,6.61.71-3.8-.9-7.45-1.14-11.06-.55-8.17,1.64-18.19,5.7-25.32,1.4-2.47,3.86-6.21,7.06-5.81,2.4.3,3.96,4.09,4.41,6.22,2.49,11.68-11.66,27.9-10.24,39.83.66,5.59,5.85,4.93,6.58,9.94-2.8.23-4.52-2.43-6.51-3.69-.55-.35-7.09-3.35-7.49-3.42-1.49-.26-7.92.85-9.95,1.11-3.56.45-7.06,1.02-10.64,1.43-.71.08-1.3.55-2.03.55-3.33.03-14.47-2.96-17.57-4.56-3.36-1.73-6.15-3.84-2.54-7.22,6.06-5.68,19.29-4.01,26.82-2.69,2.24.4,6.24,2.88,8,2.91,2.15.04.01-2.88-.59-3.58-2.05-2.4-6.29-6.38-9.13-7.68-2.26-1.03-4.05-1.11-6.35-1.69-14.07-3.58-27.21-6.94-38.99-15.89-2.78-2.11-9.32-7.42-5.06-11.04,1.7-1.44,7.76.34,9.91,1.02,7.01,2.23,14.96,5.76,21.24,9.5,3.42,2.04,6.29,4.72,10.56,5.25.37.05,1.21.24.97-.39-2.21-2.6-4.39-5.62-6.71-8.09-4.98-5.3-11-9.61-16.42-14.47-7.59-6.81-23-21.51-26.07-31.11-2.89-9.04,1.72-17.15,11.35-11.06,11.47,7.25,12.32,21.11,20.59,29.31.14.14.81.59.87.51.38-4.72-.23-9.5,0-14.23.39-8.24,4.35-23.89,11.72-28.58,2.19-1.39,4.51-1.68,6.11.72,1.85,2.76.44,9.21.03,12.39-2.32,17.8-7.36,35.29-4.55,53.48ZM39.99,130.54l7.18-50.27c-.91.87-1.74,2.12-2.4,3.2-5.97,9.8-8.05,24.67-7.03,35.97.35,3.86.97,7.45,2.25,11.1ZM14.02,96.17l-8.22-6.71c-.67,2.23-2.47,3.71-2.27,6.14.27,3.27,4.02,8.08,6.01,10.88,4.33,6.08,9.66,12.3,15.21,17.31,2.73,2.47,6.02,4.73,8.91,7.03-1.63-5.11-4.27-9.87-6.81-14.57l-8.92-14.94-3.91-5.15ZM71.02,118.48c-.67-.1-.98.7-1.26,1.18-3.97,6.82-9.12,23.62-9.11,31.42,0,.7,1.18,5.61,1.46,5.89.37.37.5-.05.64-.36.25-.56.5-1.52.71-2.16,2.93-9.02,9.03-25.8,7.84-34.64-.03-.21-.58-.16-.59-.33l.3-.99ZM80.79,170.47l3.3-6.32c1.34-4.08,3.3-8.17,4.32-12.34.43-1.76,2.05-8.77-.65-9.16-.82-.12-1.49,1.08-1.9,1.72-3.29,5.13-5.58,18.98-5.36,25.1.01.35-.22,1.07.28,1ZM46.56,159.02c-7.45-4.37-14.8-9.04-22.8-12.39-2.35-.98-7.07-2.99-9.48-2.9-2.27.08-1.05.98.01,1.74,1.66,1.18,4.14,2.49,5.97,3.51,8.26,4.6,17.05,8.42,26.2,10.86l.1-.82ZM67.86,183.39c-.4-.62-1.54-.82-2.24-1.06-9.15-3.21-19.86-7.01-29.44-2.89-3.4,1.46-.57,2.3,1.52,2.94,3.08.95,7.6,2.03,10.78,2.44,6.52.83,12.94-.59,19.39-1.43Z" class="cls-2"></path><path d="M25.33,95.49c-.47-.45-1.18-.8-1.62-1.25-2.81-2.85-6.74-9.74-8.16-13.53-.87-2.32-4.51-12.08-4.56-13.83-.06-2.27.86-12.29,1.51-14.24.39-1.17,2.83-4.67,3.74-5.6.55-.55,2.34-1.97,3.03-1.97,3.3.04,5.46,8.91,5.98,11.57,1.77,8.97,1.59,18.1,1.34,27.25-.08,2.84.28,7.24-.46,9.94-.17.61-.74,1-.8,1.64ZM18.56,51.7c-.17-.17-.06-.53-.26-.44-3.13,5.88-3.12,13.75-1.44,20.11.63,2.38,2.31,6.94,3.79,8.83.18.23,0,.53.65.36.15-.74.41-1.44.54-2.19.97-5.56-.1-21.18-2.76-26.17-.15-.29-.35-.32-.54-.5Z" class="cls-2"></path></g></svg>